<?xml version="1.0" standalone="no"?>
<!DOCTYPE svg PUBLIC "-//W3C//DTD SVG 20010904//EN"
 "http://www.w3.org/TR/2001/REC-SVG-20010904/DTD/svg10.dtd">
<svg version="1.0" xmlns="http://www.w3.org/2000/svg"
 width="2048.000000pt" height="2048.000000pt" viewBox="0 0 2048.000000 2048.000000"
 preserveAspectRatio="xMidYMid meet">

<g transform="translate(0.000000,2048.000000) scale(0.100000,-0.100000)"
fill="#000000" stroke="none">
<path d="M7435 14004 c-22 -2 -103 -8 -180 -14 -671 -52 -1299 -247 -1728
-537 -412 -278 -683 -624 -822 -1047 -80 -244 -108 -430 -108 -716 0 -201 9
-310 44 -513 17 -93 18 -121 9 -132 -15 -18 -10 -65 21 -220 17 -90 22 -147
23 -310 1 -260 -25 -447 -94 -682 -136 -460 -389 -800 -667 -899 -89 -31 -203
-33 -296 -4 -176 55 -341 241 -435 494 -41 110 -54 128 -79 103 -17 -17 -17
-22 11 -100 115 -329 316 -549 544 -596 442 -91 896 383 1071 1119 52 219 65
339 66 610 0 155 -5 285 -14 355 -13 103 -16 112 -47 141 -31 30 -34 39 -53
165 -107 703 27 1279 407 1750 306 379 849 680 1488 824 1183 265 2739 104
4429 -460 839 -279 1591 -605 2480 -1073 384 -202 946 -524 1044 -599 50 -38
91 -43 121 -13 43 43 19 108 -52 137 -14 7 -113 63 -220 126 -936 552 -1846
982 -2838 1340 -1123 405 -2173 649 -3160 733 -171 14 -867 28 -965 18z"/>
<path d="M5629 11788 c-48 -54 -150 -335 -204 -563 -87 -362 -125 -723 -125
-1193 0 -424 28 -751 100 -1176 78 -457 193 -879 353 -1286 69 -178 235 -512
305 -615 41 -61 51 -70 77 -70 53 0 46 39 -29 168 -201 346 -372 784 -492
1262 -59 234 -60 249 -46 420 24 277 94 456 202 513 38 20 55 23 108 19 340
-26 856 -711 1252 -1664 47 -111 55 -123 84 -123 64 0 60 49 -20 239 -366 861
-820 1489 -1182 1633 -82 32 -229 33 -289 0 -94 -50 -157 -127 -210 -257 -17
-43 -34 -73 -37 -65 -5 16 -30 236 -46 415 -18 194 -24 675 -11 875 34 527
126 959 278 1304 24 54 43 111 43 126 0 56 -73 81 -111 38z"/>
<path d="M12150 11433 c-10 -7 -52 -82 -94 -165 -188 -378 -288 -753 -338
-1263 -16 -166 -16 -709 0 -880 68 -706 252 -1377 536 -1942 214 -429 437
-733 720 -985 81 -71 106 -88 131 -88 37 0 65 26 65 61 0 32 -9 42 -95 111
-267 214 -580 639 -776 1053 -125 266 -241 587 -318 886 -50 193 -83 340 -77
346 2 3 58 -16 123 -42 390 -154 799 -258 1195 -302 212 -23 631 -23 828 1
474 56 842 188 1132 406 233 175 372 370 435 610 21 79 26 118 26 235 0 144
-12 220 -53 347 -37 114 -137 299 -221 413 -92 123 -270 306 -399 409 -223
178 -568 376 -860 494 -422 170 -860 269 -1340 302 -204 14 -596 10 -620 -7z
m701 -113 c733 -58 1457 -317 1986 -711 131 -98 373 -340 456 -457 342 -483
324 -971 -52 -1342 -274 -271 -755 -459 -1306 -510 -143 -13 -488 -13 -635 1
-372 33 -754 116 -1050 226 -86 32 -360 150 -368 158 -2 2 -12 64 -22 137 -80
571 -71 1143 26 1613 63 307 156 590 257 779 47 88 53 92 167 105 99 12 390
12 541 1z"/>
<path d="M13829 10197 c-40 -26 -69 -79 -69 -123 0 -35 32 -88 71 -116 57 -42
154 -16 190 52 35 64 18 159 -34 190 -45 28 -115 26 -158 -3z m96 -111 c25
-18 13 -46 -20 -46 -27 0 -41 20 -31 45 7 19 26 19 51 1z"/>
<path d="M10129 10547 c-113 -32 -231 -154 -228 -236 1 -20 -9 -79 -22 -131
-21 -86 -24 -116 -23 -325 0 -201 3 -243 22 -335 78 -360 253 -687 465 -868
341 -292 727 -222 922 168 73 147 104 285 112 501 7 200 -1 293 -28 320 -24
24 -74 24 -98 0 -18 -18 -19 -31 -14 -213 4 -154 2 -212 -11 -288 -45 -256
-149 -431 -302 -506 -66 -33 -84 -38 -152 -38 -130 -1 -269 63 -395 183 -39
37 -121 135 -150 181 l-16 25 52 1 c230 3 400 310 399 719 0 278 -63 505 -187
680 -94 132 -227 195 -346 162z m140 -147 c109 -55 211 -260 246 -494 25 -168
16 -330 -25 -484 -43 -157 -136 -282 -211 -282 -49 0 -91 -21 -104 -54 l-14
-31 -44 95 c-60 128 -102 258 -134 409 -23 108 -26 152 -27 311 -2 310 44 453
169 531 39 24 96 24 144 -1z"/>
<path d="M7249 10147 c-113 -32 -231 -154 -228 -236 1 -20 -9 -79 -22 -131
-21 -86 -24 -116 -23 -325 0 -201 3 -243 22 -335 94 -436 318 -799 592 -960
398 -234 795 15 891 558 l12 73 57 -113 c124 -250 265 -415 440 -518 308 -181
626 -77 795 260 73 147 104 285 112 501 7 200 -1 293 -28 320 -24 24 -74 24
-98 0 -18 -18 -19 -31 -14 -213 4 -154 2 -212 -11 -288 -45 -256 -149 -431
-302 -506 -66 -33 -84 -38 -152 -38 -130 -1 -269 63 -395 183 -39 37 -121 135
-150 181 l-16 25 52 1 c230 3 400 310 399 719 0 213 -41 413 -114 560 -134
267 -324 356 -511 239 -72 -45 -138 -139 -136 -193 1 -20 -9 -76 -21 -126 -20
-77 -23 -121 -26 -313 -2 -122 -7 -230 -13 -239 -5 -10 -7 -95 -4 -208 4 -151
2 -210 -11 -285 -45 -256 -149 -431 -302 -506 -66 -33 -84 -38 -152 -38 -130
-1 -269 63 -395 183 -39 37 -121 135 -150 181 l-16 25 52 1 c230 3 400 310
399 719 0 278 -63 505 -187 680 -94 132 -227 195 -346 162z m140 -147 c109
-55 211 -260 246 -494 25 -168 16 -330 -25 -484 -43 -157 -136 -282 -211 -282
-49 0 -91 -21 -104 -54 l-14 -31 -44 95 c-60 128 -102 258 -134 409 -23 108
-26 152 -27 311 -2 310 44 453 169 531 39 24 96 24 144 -1z m1400 0 c109 -55
211 -260 246 -494 25 -168 16 -330 -25 -484 -43 -157 -136 -282 -211 -282 -49
0 -91 -21 -104 -54 l-14 -31 -44 95 c-60 128 -103 259 -134 410 -22 107 -26
152 -27 310 -2 310 44 453 169 531 39 24 96 24 144 -1z"/>
<path d="M17260 8831 c-134 -41 -261 -212 -341 -458 l-23 -73 -48 92 c-59 111
-111 183 -193 263 -176 174 -371 163 -441 -26 -17 -47 -25 -223 -12 -270 l8
-26 -98 -7 c-172 -13 -283 -53 -347 -129 -186 -217 142 -550 641 -650 l116
-24 -86 -48 c-47 -26 -133 -86 -193 -133 -250 -199 -386 -384 -387 -529 -1
-66 14 -97 67 -137 37 -27 134 -33 216 -12 34 9 65 16 67 16 2 0 4 -33 4 -73
0 -273 175 -361 372 -188 68 60 142 166 213 303 l62 120 36 -73 c129 -266 325
-432 471 -399 52 12 111 71 132 133 9 27 19 81 23 120 l6 72 91 2 c114 2 164
15 210 55 80 70 89 154 30 273 -83 169 -305 339 -600 464 l-30 12 80 32 c306
125 588 406 650 649 30 118 -3 215 -89 260 -35 19 -58 23 -137 23 -52 0 -110
-3 -128 -7 -38 -9 -41 -5 -67 112 -45 195 -153 298 -275 261z m109 -131 c33
-33 66 -111 76 -180 12 -86 -17 -146 -198 -398 -235 -327 -268 -372 -274 -372
-3 0 -2 12 2 27 10 42 7 189 -6 284 -11 77 -10 95 6 155 45 171 129 345 210
433 79 87 133 102 184 51z m-887 -61 c120 -61 263 -264 333 -472 23 -71 24
-81 18 -238 -3 -90 -9 -172 -13 -182 -5 -15 -56 47 -233 280 -124 164 -238
312 -252 329 -22 28 -25 41 -25 106 0 169 62 233 172 177z m1331 -253 c57 -24
72 -50 72 -125 -1 -53 -7 -79 -33 -132 -113 -235 -401 -479 -656 -558 -69 -21
-198 -29 -224 -12 -10 6 1 25 41 77 29 38 151 197 272 354 224 293 277 358
304 375 54 32 172 43 224 21z m-1568 -200 c48 -12 54 -18 163 -157 62 -79 160
-206 217 -281 l105 -138 -58 0 c-145 0 -378 62 -545 146 -275 138 -379 321
-226 399 81 43 244 57 344 31z m555 -680 c0 -7 -490 -679 -508 -698 -17 -17
-195 -58 -251 -58 -105 0 -116 69 -35 207 107 181 359 392 584 490 93 40 210
73 210 59z m332 -56 c191 -49 383 -157 524 -295 133 -129 181 -237 135 -297
-35 -44 -149 -61 -247 -37 -42 11 -52 21 -132 126 -48 63 -156 205 -239 314
-84 110 -153 202 -153 204 0 9 33 5 112 -15z m5 -365 c93 -121 190 -247 215
-280 38 -51 47 -71 56 -130 24 -150 -21 -240 -108 -215 -50 14 -91 45 -162
117 -77 80 -132 163 -195 290 l-45 92 17 73 c10 40 20 124 22 186 5 90 8 111
18 100 7 -7 88 -112 182 -233z m-357 50 c11 -88 11 -92 -20 -190 -76 -238
-226 -457 -340 -497 -28 -9 -35 -8 -56 13 -35 35 -47 115 -33 214 l12 80 211
277 211 278 2 -43 c1 -23 7 -82 13 -132z"/>
<path d="M13879 8004 c-31 -38 9 -271 83 -484 93 -265 196 -473 343 -695 143
-216 261 -325 352 -325 33 0 50 6 68 25 30 29 31 45 4 79 -17 21 -29 26 -66
26 -44 0 -49 3 -117 73 -99 100 -201 257 -311 478 -143 288 -218 497 -255 713
-10 61 -24 113 -32 117 -21 14 -54 10 -69 -7z"/>
</g>
</svg>
